#!OML:ASF E:\Steps\Project 1\Capture day 1\Session 2\Subject.ASF
:FULLY-SPECIFIED
:DEGREES
681
root 9.74053 20.5973 -11.853 -160.374 -0.655473 177.606
lowerback -17.0863 0.695056 -3.4348
upperback 2.89852 1.61481 0.484564
thorax 12.7724 0.469911 2.93878
lowerneck -2.80174 -1.19869 -1.17658
upperneck 19.395 -3.23491 2.13391
head 6.39153 -1.9709 0.61905
rclavicle 2.5842e-015 -5.56597e-015
rhumerus -31.864 -12.4575 -77.7529
rradius 42.1413
rwrist -3.95268
rhand -7.38547 -55.1609
rfingers 7.12502
rthumb 18.5001 -84.3012
lclavicle 2.5842e-015 -5.56597e-015
lhumerus -32.1157 5.32671 79.0569
lradius 25.284
lwrist -4.66834
lhand -20.7326 -14.2712
lfingers 7.12502
lthumb 5.63254 15.634
rfemur -22.2034 3.44875 22.9654
rtibia 13.6119
rfoot -19.7263 -6.28722
rtoes -36.6672
lfemur -76.7579 -1.01008 -22.8346
ltibia 78.2428
lfoot -8.96608 5.3482
ltoes -28.1866
682
root 9.73446 20.5966 -11.9118 -160.57 -0.439072 177.438
lowerback -16.9408 0.742768 -3.52193
upperback 2.84451 1.69388 0.455267
thorax 12.6166 0.506661 2.97152
lowerneck -2.13885 -1.1237 -1.19676
upperneck 18.9414 -3.13742 2.26372
head 6.13253 -1.92332 0.681186
rclavicle -8.15017e-015 7.95139e-015
rhumerus -31.6947 -12.2855 -77.8621
rradius 42.0525
rwrist -4.25702
rhand -7.96905 -54.9826
rfingers 7.12502
rthumb 17.9386 -84.1753
lclavicle -8.15017e-015 7.95139e-015
lhumerus -32.6041 5.65012 78.8915
lradius 25.1151
lwrist -5.01052
lhand -20.646 -14.3124
lfingers 7.12502
lthumb 5.71617 15.5905
rfemur -21.6096 3.32416 22.7676
rtibia 13.3144
rfoot -19.8152 -6.25151
rtoes -37.1544
lfemur -76.8263 -1.01466 -22.9884
ltibia 76.5836
lfoot -8.54572 5.22649
ltoes -28.7734
683
root 9.73028 20.5962 -11.9718 -160.83 -0.120844 177.271
lowerback -16.8927 0.774604 -3.68029
upperback 2.90719 1.77322 0.438068
thorax 12.6509 0.531357 3.06375
lowerneck -1.69302 -1.02279 -1.41505
upperneck 18.5709 -3.00974 2.54609
head 5.94245 -1.85934 0.822281
rclavicle 2.96189e-014 -7.95139e-016
rhumerus -31.2002 -12.148 -77.9972
rradius 41.7706
rwrist -4.18413
rhand -8.26156 -54.5186
rfingers 7.12502
rthumb 17.6572 -83.7368
lclavicle 2.96189e-014 -7.95139e-016
lhumerus -32.8963 6.19203 78.6777
lradius 24.8738
lwrist -5.34618
lhand -20.6578 -14.2762
lfingers 7.12502
lthumb 5.70472 15.627
rfemur -21.0164 3.40225 22.5428
rtibia 13.1435
rfoot -20.3126 -5.92425
rtoes -32.3627
lfemur -76.6907 -0.926878 -23.1153
ltibia 74.7843
lfoot -7.80347 5.13508
ltoes -27.8072
684
root 9.72416 20.5933 -12.0339 -160.967 0.164585 177.301
lowerback -17.1055 0.865455 -3.6062
upperback 3.04976 1.88898 0.463602
thorax 12.934 0.579681 3.09206
lowerneck -1.98022 -1.03399 -1.20762
upperneck 18.876 -2.99251 2.13827
head 6.07984 -1.86594 0.654193
rclavicle -7.35503e-015 3.57812e-015
rhumerus -30.6222 -12.0887 -78.1157
rradius 41.7352
rwrist -4.01636
rhand -8.09773 -54.4737
rfingers 7.12502
rthumb 17.8148 -83.6777
lclavicle -7.35503e-015 3.57812e-015
lhumerus -32.8631 6.57638 78.5924
lradius 24.5599
lwrist -5.49862
lhand -20.6345 -13.9593
lfingers 7.12502
lthumb 5.72724 15.9433
rfemur -20.5525 3.43146 22.5706
rtibia 12.9877
rfoot -19.6183 -6.0376
rtoes -36.3493
lfemur -76.5577 -0.846419 -22.964
ltibia 72.8863
lfoot -7.09122 5.00463
ltoes -29.3716
685
root 9.71973 20.5886 -12.0916 -161.023 0.388976 177.335
lowerback -17.2736 0.981191 -3.54412
upperback 3.10748 2.03526 0.490362
thorax 13.0903 0.64555 3.13436
lowerneck -2.56044 -0.927154 -1.03747
upperneck 19.2421 -2.79274 1.77063
head 6.2859 -1.77501 0.512459
rclavicle -2.98177e-015 7.95139e-015
rhumerus -30.318 -12.0201 -78.1963
rradius 41.8674
rwrist -4.09865
rhand -7.78897 -54.7725
rfingers 7.12502
rthumb 18.1119 -83.9492
lclavicle -2.98177e-015 7.95139e-015
lhumerus -32.9714 6.65984 78.5628
lradius 24.3166
lwrist -5.57064
lhand -20.5967 -13.682
lfingers 7.12502
lthumb 5.7637 16.2196
rfemur -20.1245 3.34389 22.621
rtibia 12.6789
rfoot -19.7892 -5.89378
rtoes -36.9851
lfemur -76.5365 -0.816054 -22.7492
ltibia 71.1522
lfoot -6.77728 4.67853
ltoes -31.5512
686
root 9.71793 20.5838 -12.1449 -161.211 0.649043 177.331
lowerback -17.0911 1.09375 -3.54911
upperback 3.06998 2.18367 0.491832
thorax 12.9263 0.721849 3.17219
lowerneck -1.95976 -1.0911 -1.1362
upperneck 18.8493 -3.05247 2.02133
head 6.06646 -1.89753 0.602272
rclavicle -1.98785e-015 1.47101e-014
rhumerus -30.2515 -11.9124 -78.3111
rradius 41.9405
rwrist -4.20335
rhand -7.92859 -54.3445
rfingers 7.12502
rthumb 17.9775 -83.5336
lclavicle -1.98785e-015 1.47101e-014
lhumerus -33.4493 6.63453 78.4626
lradius 24.1458
lwrist -5.61912
lhand -20.6413 -13.9839
lfingers 7.12502
lthumb 5.72066 15.9189
rfemur -19.6598 3.57944 22.5805
rtibia 12.5464
rfoot -19.9161 -6.00372
rtoes -37.5903
lfemur -76.3878 -0.705573 -22.5852
ltibia 69.5146
lfoot -6.49366 4.27161
ltoes -32.611
687
root 9.7133 20.5783 -12.1999 -161.42 0.812 177.436
lowerback -16.7856 1.1841 -3.394
upperback 2.9603 2.25282 0.526958
thorax 12.6163 0.775596 3.12686
lowerneck -1.92179 -1.00645 -0.851835
upperneck 19.1711 -2.94886 1.65156
head 6.1513 -1.86988 0.440593
rclavicle -2.38542e-015 -1.55052e-014
rhumerus -30.1669 -11.8163 -78.4328
rradius 41.8931
rwrist -4.20452
rhand -7.97977 -54.1868
rfingers 7.12502
rthumb 17.9283 -83.3805
lclavicle -2.38542e-015 -1.55052e-014
lhumerus -33.904 6.67343 78.3637
lradius 23.8083
lwrist -5.65943
lhand -20.6811 -14.3957
lfingers 7.12502
lthumb 5.68225 15.5082
rfemur -19.2429 3.77611 22.6858
rtibia 12.6047
rfoot -20.0502 -6.06419
rtoes -37.6111
lfemur -76.111 -0.633103 -22.3218
ltibia 67.7251
lfoot -5.80963 3.98024
ltoes -33.5484
688
root 9.70394 20.572 -12.2595 -161.548 0.936887 177.471
lowerback -16.7934 1.27077 -3.25084
upperback 2.94894 2.33275 0.573372
thorax 12.6048 0.821912 3.11856
lowerneck -1.72087 -0.986394 -1.06698
upperneck 19.2969 -2.94375 1.65572
head 6.15905 -1.89539 0.478684
rclavicle 9.54166e-015 -3.18055e-015
rhumerus -29.9175 -11.8243 -78.4701
rradius 41.8773
rwrist -4.26345
rhand -7.81062 -54.4639
rfingers 7.12502
rthumb 18.0911 -83.6426
lclavicle 9.54166e-015 -3.18055e-015
lhumerus -34.0332 6.64656 78.4392
lradius 23.5135
lwrist -5.6842
lhand -20.4511 -14.0446
lfingers 7.12502
lthumb 5.90431 15.8531
rfemur -18.8695 3.51474 22.7462
rtibia 12.6168
rfoot -20.1689 -5.77882
rtoes -37.4926
lfemur -75.8727 -0.684848 -22.1436
ltibia 66.0729
lfoot -5.20112 3.65664
ltoes -32.6248
689
root 9.69288 20.5656 -12.3219 -161.683 1.25055 177.492
lowerback -16.9717 1.43725 -3.13159
upperback 3.09566 2.53738 0.581287
thorax 12.8688 0.915469 3.12673
lowerneck -2.17238 -1.01961 -1.15493
upperneck 19.5093 -2.96475 1.61559
head 6.3056 -1.90551 0.472703
rclavicle -7.95139e-016 1.03368e-014
rhumerus -29.4567 -11.9256 -78.5648
rradius 41.9054
rwrist -4.22759
rhand -8.00037 -54.4156
rfingers 7.12502
rthumb 17.9085 -83.6111
lclavicle -7.95139e-016 1.03368e-014
lhumerus -33.9405 6.62708 78.5073
lradius 23.3537
lwrist -5.75677
lhand -20.077 -13.4734
lfingers 7.12502
lthumb 6.26547 16.4139
rfemur -18.5062 3.45858 22.735
rtibia 12.6355
rfoot -20.4138 -5.50596
rtoes -37.4494
lfemur -75.6301 -0.58524 -21.9992
ltibia 64.7585
lfoot -4.87762 3.31405
ltoes -31.0064
690
root 9.68377 20.5587 -12.3847 -161.843 1.53915 177.595
lowerback -17.0931 1.54816 -2.99237
upperback 3.26037 2.65829 0.614531
thorax 13.1271 0.970483 3.12849
lowerneck -1.8899 -1.09144 -1.23113
upperneck 18.9749 -3.06369 1.97758
head 6.0949 -1.92048 0.602998
rclavicle 2.3059e-014 -5.56597e-015
rhumerus -28.8835 -11.8457 -78.7745
rradius 41.9263
rwrist -3.8565
rhand -8.06552 -54.5352
rfingers 7.12502
rthumb 17.8458 -83.7364
lclavicle 2.3059e-014 -5.56597e-015
lhumerus -33.8888 7.06641 78.3318
lradius 23.077
lwrist -6.19268
lhand -19.8707 -13.5238
lfingers 7.12502
lthumb 6.46466 16.3576
rfemur -18.0872 3.71005 22.7982
rtibia 12.6134
rfoot -20.5994 -5.45735
rtoes -37.0669
lfemur -75.2863 -0.461925 -21.7282
ltibia 63.4146
lfoot -4.35077 3.09029
ltoes -29.9163
691
root 9.6748 20.5505 -12.4463 -161.951 1.66396 177.618
lowerback -17.2436 1.51787 -2.9778
upperback 3.33379 2.6089 0.71151
thorax 13.3019 0.937364 3.22449
lowerneck -1.29692 -1.06448 -1.10581
upperneck 18.5465 -3.0002 1.85296
head 5.85304 -1.89463 0.556891
rclavicle 1.98785e-015 -1.59028e-014
rhumerus -28.5004 -11.3782 -78.9431
rradius 42.0656
rwrist -3.60411
rhand -7.38928 -55.2529
rfingers 7.12502
rthumb 18.4964 -84.3936
lclavicle 1.98785e-015 -1.59028e-014
lhumerus -34.0792 7.80915 78.1257
lradius 22.8067
lwrist -6.87863
lhand -19.7018 -13.6584
lfingers 7.12502
lthumb 6.62767 16.2179
rfemur -17.6916 3.73042 22.811
rtibia 12.589
rfoot -20.8042 -5.48879
rtoes -37.012
lfemur -74.928 -0.547298 -21.5193
ltibia 62.0321
lfoot -3.57852 2.90641
ltoes -28.1805
692
root 9.66514 20.5398 -12.5117 -162.087 1.85578 177.641
lowerback -17.4146 1.5452 -2.94968
upperback 3.35076 2.63371 0.806189
thorax 13.4186 0.942316 3.33021
lowerneck -1.55432 -0.850054 -1.25423
upperneck 18.9522 -2.7214 1.79256
head 6.02132 -1.78134 0.571569
rclavicle -1.39149e-014 -7.95139e-015
rhumerus -28.2506 -10.9753 -79.053
rradius 42.0461
rwrist -3.57569
rhand -7.0338 -55.3578
rfingers 7.12502
rthumb 18.8383 -84.4656
lclavicle -1.39149e-014 -7.95139e-015
lhumerus -34.4011 8.25905 78.0458
lradius 22.5383
lwrist -7.49904
lhand -19.6187 -13.528
lfingers 7.12502
lthumb 6.70794 16.3458
rfemur -17.2054 3.59252 22.8237
rtibia 12.4519
rfoot -20.9833 -5.41409
rtoes -37.6123
lfemur -74.5189 -0.570021 -21.3358
ltibia 60.8042
lfoot -2.75646 2.70188
ltoes -27.1009
693
root 9.6565 20.5284 -12.5782 -162.263 2.1226 177.752
lowerback -17.396 1.6776 -2.79235
upperback 3.44323 2.77274 0.843832
thorax 13.5098 1.01362 3.3244
lowerneck -2.14411 -0.996093 -1.14457
upperneck 19.3754 -2.93175 1.68839
head 6.25845 -1.88049 0.497712
rclavicle -4.57205e-015 2.38542e-015
rhumerus -27.753 -11.0382 -79.2302
rradius 41.9235
rwrist -3.44651
rhand -7.14013 -55.0611
rfingers 7.12502
rthumb 18.736 -84.1788
lclavicle -4.57205e-015 2.38542e-015
lhumerus -34.461 8.31625 78.0242
lradius 22.1842
lwrist -7.89109
lhand -19.8296 -13.8241
lfingers 7.12502
lthumb 6.50427 16.0561
rfemur -16.6851 3.55587 22.9153
rtibia 12.2891
rfoot -21.0642 -5.23437
rtoes -38.0195
lfemur -74.095 -0.452014 -21.0933
ltibia 59.7525
lfoot -2.05082 2.42496
ltoes -28.0441
694
root 9.64801 20.5194 -12.6373 -162.315 2.3641 177.817
lowerback -17.3019 1.72698 -2.70416
upperback 3.41743 2.81151 0.884818
thorax 13.4223 1.04004 3.32544
lowerneck -1.39467 -0.822247 -0.994993
upperneck 18.7356 -2.64246 1.56854
head 5.91858 -1.73718 0.465642
rclavicle -7.95139e-016 1.11319e-014
rhumerus -27.3648 -10.888 -79.4344
rradius 41.8987
rwrist -3.45696
rhand -6.53546 -55.8028
rfingers 7.12502
rthumb 19.3175 -84.8633
lclavicle -7.95139e-016 1.11319e-014
lhumerus -34.6301 8.31967 78.0221
lradius 21.8771
lwrist -7.94801
lhand -20.0444 -14.2286
lfingers 7.12502
lthumb 6.29695 15.6578
rfemur -16.5514 3.81104 22.931
rtibia 12.5639
rfoot -21.3745 -5.35348
rtoes -38.1944
lfemur -73.8354 -0.364281 -20.9183
ltibia 58.8407
lfoot -1.50927 2.21593
ltoes -29.0471
